<mxfile host="app.diagrams.net" agent="Mozilla/5.0 (Macintosh; Intel Mac OS X 10_15_7) AppleWebKit/537.36 (KHTML, like Gecko) Chrome/136.0.0.0 Safari/537.36" version="26.2.3">
  <diagram name="Trang-1" id="oTnujGDhBnBE_h8uXy4w">
    <mxGraphModel dx="2469" dy="2077" grid="1" gridSize="10" guides="1" tooltips="1" connect="1" arrows="1" fold="1" page="1" pageScale="1" pageWidth="827" pageHeight="1169" math="0" shadow="0">
      <root>
        <mxCell id="0" />
        <mxCell id="1" parent="0" />
        <mxCell id="9iOKKmcb5jaVrc9PupZz-4" value="Login" style="rounded=0;whiteSpace=wrap;html=1;" vertex="1" parent="1">
          <mxGeometry x="350" y="-20" width="100" height="40" as="geometry" />
        </mxCell>
        <mxCell id="9iOKKmcb5jaVrc9PupZz-5" value="Home" style="rounded=0;whiteSpace=wrap;html=1;" vertex="1" parent="1">
          <mxGeometry x="350" y="80" width="100" height="40" as="geometry" />
        </mxCell>
        <mxCell id="9iOKKmcb5jaVrc9PupZz-6" value="Vehicle" style="rounded=0;whiteSpace=wrap;html=1;" vertex="1" parent="1">
          <mxGeometry x="560" y="190" width="90" height="40" as="geometry" />
        </mxCell>
        <mxCell id="9iOKKmcb5jaVrc9PupZz-7" value="Profile" style="rounded=0;whiteSpace=wrap;html=1;" vertex="1" parent="1">
          <mxGeometry x="500" width="90" height="40" as="geometry" />
        </mxCell>
        <mxCell id="9iOKKmcb5jaVrc9PupZz-8" value="User Management" style="rounded=0;whiteSpace=wrap;html=1;" vertex="1" parent="1">
          <mxGeometry x="560" y="80" width="90" height="40" as="geometry" />
        </mxCell>
        <mxCell id="9iOKKmcb5jaVrc9PupZz-9" value="Resident" style="rounded=0;whiteSpace=wrap;html=1;" vertex="1" parent="1">
          <mxGeometry x="190" y="-20" width="90" height="40" as="geometry" />
        </mxCell>
        <mxCell id="9iOKKmcb5jaVrc9PupZz-10" value="Household" style="rounded=0;whiteSpace=wrap;html=1;" vertex="1" parent="1">
          <mxGeometry x="210" y="70" width="90" height="40" as="geometry" />
        </mxCell>
        <mxCell id="9iOKKmcb5jaVrc9PupZz-11" value="Fee Type" style="rounded=0;whiteSpace=wrap;html=1;" vertex="1" parent="1">
          <mxGeometry x="150" y="190" width="90" height="40" as="geometry" />
        </mxCell>
        <mxCell id="9iOKKmcb5jaVrc9PupZz-12" value="Fee" style="rounded=0;whiteSpace=wrap;html=1;" vertex="1" parent="1">
          <mxGeometry x="350" y="190" width="100" height="40" as="geometry" />
        </mxCell>
        <mxCell id="9iOKKmcb5jaVrc9PupZz-13" value="" style="endArrow=open;dashed=1;endFill=0;endSize=12;html=1;rounded=0;startArrow=none;startFill=0;exitX=0.5;exitY=1;exitDx=0;exitDy=0;" edge="1" parent="1">
          <mxGeometry width="160" relative="1" as="geometry">
            <mxPoint x="400.00000000000006" y="20" as="sourcePoint" />
            <mxPoint x="400" y="76" as="targetPoint" />
          </mxGeometry>
        </mxCell>
        <mxCell id="9iOKKmcb5jaVrc9PupZz-15" value="" style="endArrow=open;dashed=1;endFill=0;endSize=12;html=1;rounded=0;startArrow=none;startFill=0;entryX=0;entryY=0.75;entryDx=0;entryDy=0;" edge="1" parent="1" source="9iOKKmcb5jaVrc9PupZz-5" target="9iOKKmcb5jaVrc9PupZz-7">
          <mxGeometry width="160" relative="1" as="geometry">
            <mxPoint x="420.00000000000006" y="40" as="sourcePoint" />
            <mxPoint x="420" y="96" as="targetPoint" />
          </mxGeometry>
        </mxCell>
        <mxCell id="9iOKKmcb5jaVrc9PupZz-16" value="" style="endArrow=open;dashed=1;endFill=0;endSize=12;html=1;rounded=0;startArrow=none;startFill=0;exitX=1;exitY=0.5;exitDx=0;exitDy=0;" edge="1" parent="1" source="9iOKKmcb5jaVrc9PupZz-5" target="9iOKKmcb5jaVrc9PupZz-8">
          <mxGeometry width="160" relative="1" as="geometry">
            <mxPoint x="430.00000000000006" y="50" as="sourcePoint" />
            <mxPoint x="430" y="106" as="targetPoint" />
          </mxGeometry>
        </mxCell>
        <mxCell id="9iOKKmcb5jaVrc9PupZz-17" value="" style="endArrow=open;dashed=1;endFill=0;endSize=12;html=1;rounded=0;startArrow=none;startFill=0;exitX=1;exitY=1;exitDx=0;exitDy=0;" edge="1" parent="1" source="9iOKKmcb5jaVrc9PupZz-5" target="9iOKKmcb5jaVrc9PupZz-6">
          <mxGeometry width="160" relative="1" as="geometry">
            <mxPoint x="440.00000000000006" y="60" as="sourcePoint" />
            <mxPoint x="440" y="116" as="targetPoint" />
          </mxGeometry>
        </mxCell>
        <mxCell id="9iOKKmcb5jaVrc9PupZz-18" value="" style="endArrow=open;dashed=1;endFill=0;endSize=12;html=1;rounded=0;startArrow=none;startFill=0;exitX=0;exitY=1;exitDx=0;exitDy=0;entryX=0.931;entryY=0.045;entryDx=0;entryDy=0;entryPerimeter=0;" edge="1" parent="1" source="9iOKKmcb5jaVrc9PupZz-5" target="9iOKKmcb5jaVrc9PupZz-11">
          <mxGeometry width="160" relative="1" as="geometry">
            <mxPoint x="450.00000000000006" y="70" as="sourcePoint" />
            <mxPoint x="450" y="126" as="targetPoint" />
          </mxGeometry>
        </mxCell>
        <mxCell id="9iOKKmcb5jaVrc9PupZz-19" value="" style="endArrow=open;dashed=1;endFill=0;endSize=12;html=1;rounded=0;startArrow=none;startFill=0;entryX=1.005;entryY=0.408;entryDx=0;entryDy=0;entryPerimeter=0;exitX=0;exitY=0.5;exitDx=0;exitDy=0;" edge="1" parent="1" source="9iOKKmcb5jaVrc9PupZz-5" target="9iOKKmcb5jaVrc9PupZz-10">
          <mxGeometry width="160" relative="1" as="geometry">
            <mxPoint x="460.00000000000006" y="80" as="sourcePoint" />
            <mxPoint x="460" y="136" as="targetPoint" />
          </mxGeometry>
        </mxCell>
        <mxCell id="9iOKKmcb5jaVrc9PupZz-20" value="" style="endArrow=open;dashed=1;endFill=0;endSize=12;html=1;rounded=0;startArrow=none;startFill=0;entryX=1;entryY=0.5;entryDx=0;entryDy=0;exitX=0;exitY=0;exitDx=0;exitDy=0;" edge="1" parent="1" source="9iOKKmcb5jaVrc9PupZz-5" target="9iOKKmcb5jaVrc9PupZz-9">
          <mxGeometry width="160" relative="1" as="geometry">
            <mxPoint x="470.00000000000006" y="90" as="sourcePoint" />
            <mxPoint x="470" y="146" as="targetPoint" />
          </mxGeometry>
        </mxCell>
        <mxCell id="9iOKKmcb5jaVrc9PupZz-21" value="" style="endArrow=open;dashed=1;endFill=0;endSize=12;html=1;rounded=0;startArrow=none;startFill=0;exitX=0.5;exitY=1;exitDx=0;exitDy=0;" edge="1" parent="1" source="9iOKKmcb5jaVrc9PupZz-5" target="9iOKKmcb5jaVrc9PupZz-12">
          <mxGeometry width="160" relative="1" as="geometry">
            <mxPoint x="360" y="130" as="sourcePoint" />
            <mxPoint x="244" y="202" as="targetPoint" />
          </mxGeometry>
        </mxCell>
        <mxCell id="9iOKKmcb5jaVrc9PupZz-22" value="Add User" style="rounded=0;whiteSpace=wrap;html=1;" vertex="1" parent="1">
          <mxGeometry x="720" y="30" width="90" height="40" as="geometry" />
        </mxCell>
        <mxCell id="9iOKKmcb5jaVrc9PupZz-23" value="Edit User" style="rounded=0;whiteSpace=wrap;html=1;" vertex="1" parent="1">
          <mxGeometry x="720" y="120" width="90" height="40" as="geometry" />
        </mxCell>
        <mxCell id="9iOKKmcb5jaVrc9PupZz-24" value="" style="endArrow=open;endFill=0;endSize=12;html=1;rounded=0;startArrow=diamondThin;startFill=0;exitX=1;exitY=0.5;exitDx=0;exitDy=0;entryX=0;entryY=0.5;entryDx=0;entryDy=0;" edge="1" parent="1" source="9iOKKmcb5jaVrc9PupZz-8" target="9iOKKmcb5jaVrc9PupZz-22">
          <mxGeometry width="160" relative="1" as="geometry">
            <mxPoint x="460" y="130" as="sourcePoint" />
            <mxPoint x="581" y="200" as="targetPoint" />
          </mxGeometry>
        </mxCell>
        <mxCell id="9iOKKmcb5jaVrc9PupZz-25" value="" style="endArrow=open;endFill=0;endSize=12;html=1;rounded=0;startArrow=diamondThin;startFill=0;exitX=1;exitY=0.5;exitDx=0;exitDy=0;entryX=0;entryY=0.5;entryDx=0;entryDy=0;" edge="1" parent="1" source="9iOKKmcb5jaVrc9PupZz-8" target="9iOKKmcb5jaVrc9PupZz-23">
          <mxGeometry width="160" relative="1" as="geometry">
            <mxPoint x="660" y="110" as="sourcePoint" />
            <mxPoint x="730" y="60" as="targetPoint" />
          </mxGeometry>
        </mxCell>
        <mxCell id="9iOKKmcb5jaVrc9PupZz-26" value="Update Profile" style="rounded=0;whiteSpace=wrap;html=1;" vertex="1" parent="1">
          <mxGeometry x="600" y="-90" width="90" height="40" as="geometry" />
        </mxCell>
        <mxCell id="9iOKKmcb5jaVrc9PupZz-27" value="" style="endArrow=open;endFill=0;endSize=12;html=1;rounded=0;startArrow=diamondThin;startFill=0;exitX=0.5;exitY=0;exitDx=0;exitDy=0;entryX=0;entryY=1;entryDx=0;entryDy=0;" edge="1" parent="1" source="9iOKKmcb5jaVrc9PupZz-7" target="9iOKKmcb5jaVrc9PupZz-26">
          <mxGeometry width="160" relative="1" as="geometry">
            <mxPoint x="540" as="sourcePoint" />
            <mxPoint x="610" y="-50" as="targetPoint" />
          </mxGeometry>
        </mxCell>
        <mxCell id="9iOKKmcb5jaVrc9PupZz-28" value="Add Resident" style="rounded=0;whiteSpace=wrap;html=1;" vertex="1" parent="1">
          <mxGeometry x="330" y="-110" width="90" height="40" as="geometry" />
        </mxCell>
        <mxCell id="9iOKKmcb5jaVrc9PupZz-29" value="Edit resident" style="rounded=0;whiteSpace=wrap;html=1;" vertex="1" parent="1">
          <mxGeometry x="70" y="-110" width="90" height="40" as="geometry" />
        </mxCell>
        <mxCell id="9iOKKmcb5jaVrc9PupZz-30" value="" style="endArrow=open;endFill=0;endSize=12;html=1;rounded=0;startArrow=diamondThin;startFill=0;exitX=0.75;exitY=0;exitDx=0;exitDy=0;entryX=0;entryY=0.5;entryDx=0;entryDy=0;" edge="1" parent="1" target="9iOKKmcb5jaVrc9PupZz-28" source="9iOKKmcb5jaVrc9PupZz-9">
          <mxGeometry width="160" relative="1" as="geometry">
            <mxPoint x="-10" y="-60" as="sourcePoint" />
            <mxPoint x="-79" y="40" as="targetPoint" />
          </mxGeometry>
        </mxCell>
        <mxCell id="9iOKKmcb5jaVrc9PupZz-31" value="" style="endArrow=open;endFill=0;endSize=12;html=1;rounded=0;startArrow=diamondThin;startFill=0;entryX=1;entryY=0.5;entryDx=0;entryDy=0;exitX=0.25;exitY=0;exitDx=0;exitDy=0;" edge="1" parent="1" target="9iOKKmcb5jaVrc9PupZz-29" source="9iOKKmcb5jaVrc9PupZz-9">
          <mxGeometry width="160" relative="1" as="geometry">
            <mxPoint x="190" as="sourcePoint" />
            <mxPoint x="70" y="-100" as="targetPoint" />
          </mxGeometry>
        </mxCell>
        <mxCell id="9iOKKmcb5jaVrc9PupZz-32" value="Resident info" style="rounded=0;whiteSpace=wrap;html=1;" vertex="1" parent="1">
          <mxGeometry x="190" y="-140" width="90" height="40" as="geometry" />
        </mxCell>
        <mxCell id="9iOKKmcb5jaVrc9PupZz-33" value="" style="endArrow=open;endFill=0;endSize=12;html=1;rounded=0;startArrow=diamondThin;startFill=0;exitX=0.5;exitY=0;exitDx=0;exitDy=0;entryX=0.5;entryY=1;entryDx=0;entryDy=0;" edge="1" parent="1" source="9iOKKmcb5jaVrc9PupZz-9" target="9iOKKmcb5jaVrc9PupZz-32">
          <mxGeometry width="160" relative="1" as="geometry">
            <mxPoint x="268" y="-10" as="sourcePoint" />
            <mxPoint x="340" y="-80" as="targetPoint" />
          </mxGeometry>
        </mxCell>
        <mxCell id="9iOKKmcb5jaVrc9PupZz-34" value="Add Household" style="rounded=0;whiteSpace=wrap;html=1;" vertex="1" parent="1">
          <mxGeometry x="10" y="-20" width="90" height="40" as="geometry" />
        </mxCell>
        <mxCell id="9iOKKmcb5jaVrc9PupZz-35" value="Edit Household" style="rounded=0;whiteSpace=wrap;html=1;" vertex="1" parent="1">
          <mxGeometry x="10" y="130" width="90" height="40" as="geometry" />
        </mxCell>
        <mxCell id="9iOKKmcb5jaVrc9PupZz-36" value="" style="endArrow=open;endFill=0;endSize=12;html=1;rounded=0;startArrow=diamondThin;startFill=0;exitX=-0.005;exitY=0.423;exitDx=0;exitDy=0;entryX=1;entryY=0.5;entryDx=0;entryDy=0;exitPerimeter=0;" edge="1" parent="1" target="9iOKKmcb5jaVrc9PupZz-34" source="9iOKKmcb5jaVrc9PupZz-10">
          <mxGeometry width="160" relative="1" as="geometry">
            <mxPoint x="158" y="100" as="sourcePoint" />
            <mxPoint x="-179" y="160" as="targetPoint" />
          </mxGeometry>
        </mxCell>
        <mxCell id="9iOKKmcb5jaVrc9PupZz-37" value="" style="endArrow=open;endFill=0;endSize=12;html=1;rounded=0;startArrow=diamondThin;startFill=0;entryX=1;entryY=0.5;entryDx=0;entryDy=0;exitX=-0.023;exitY=0.599;exitDx=0;exitDy=0;exitPerimeter=0;" edge="1" parent="1" target="9iOKKmcb5jaVrc9PupZz-35" source="9iOKKmcb5jaVrc9PupZz-10">
          <mxGeometry width="160" relative="1" as="geometry">
            <mxPoint x="113" y="100" as="sourcePoint" />
            <mxPoint x="-30" y="20" as="targetPoint" />
          </mxGeometry>
        </mxCell>
        <mxCell id="9iOKKmcb5jaVrc9PupZz-38" value="Household Detail" style="rounded=0;whiteSpace=wrap;html=1;" vertex="1" parent="1">
          <mxGeometry x="-10" y="50" width="90" height="40" as="geometry" />
        </mxCell>
        <mxCell id="9iOKKmcb5jaVrc9PupZz-39" value="" style="endArrow=open;endFill=0;endSize=12;html=1;rounded=0;startArrow=diamondThin;startFill=0;exitX=0;exitY=0.5;exitDx=0;exitDy=0;entryX=0.983;entryY=0.592;entryDx=0;entryDy=0;entryPerimeter=0;" edge="1" parent="1" target="9iOKKmcb5jaVrc9PupZz-38" source="9iOKKmcb5jaVrc9PupZz-10">
          <mxGeometry width="160" relative="1" as="geometry">
            <mxPoint x="135" y="100" as="sourcePoint" />
            <mxPoint x="240" y="40" as="targetPoint" />
          </mxGeometry>
        </mxCell>
        <mxCell id="9iOKKmcb5jaVrc9PupZz-40" value="Add Fee Type" style="rounded=0;whiteSpace=wrap;html=1;" vertex="1" parent="1">
          <mxGeometry x="-10" y="210" width="90" height="40" as="geometry" />
        </mxCell>
        <mxCell id="9iOKKmcb5jaVrc9PupZz-41" value="Edit Fee Type" style="rounded=0;whiteSpace=wrap;html=1;" vertex="1" parent="1">
          <mxGeometry x="150" y="310" width="90" height="40" as="geometry" />
        </mxCell>
        <mxCell id="9iOKKmcb5jaVrc9PupZz-42" value="" style="endArrow=open;endFill=0;endSize=12;html=1;rounded=0;startArrow=diamondThin;startFill=0;exitX=-0.023;exitY=0.592;exitDx=0;exitDy=0;entryX=1;entryY=0.5;entryDx=0;entryDy=0;exitPerimeter=0;" edge="1" parent="1" target="9iOKKmcb5jaVrc9PupZz-40" source="9iOKKmcb5jaVrc9PupZz-11">
          <mxGeometry width="160" relative="1" as="geometry">
            <mxPoint x="210" y="327" as="sourcePoint" />
            <mxPoint x="-179" y="400" as="targetPoint" />
          </mxGeometry>
        </mxCell>
        <mxCell id="9iOKKmcb5jaVrc9PupZz-43" value="" style="endArrow=open;endFill=0;endSize=12;html=1;rounded=0;startArrow=diamondThin;startFill=0;entryX=0.5;entryY=0;entryDx=0;entryDy=0;exitX=0.541;exitY=0.997;exitDx=0;exitDy=0;exitPerimeter=0;" edge="1" parent="1" target="9iOKKmcb5jaVrc9PupZz-41" source="9iOKKmcb5jaVrc9PupZz-11">
          <mxGeometry width="160" relative="1" as="geometry">
            <mxPoint x="208" y="334" as="sourcePoint" />
            <mxPoint x="-30" y="260" as="targetPoint" />
          </mxGeometry>
        </mxCell>
        <mxCell id="9iOKKmcb5jaVrc9PupZz-44" value="Fee Type Detail" style="rounded=0;whiteSpace=wrap;html=1;" vertex="1" parent="1">
          <mxGeometry x="-10" y="290" width="90" height="40" as="geometry" />
        </mxCell>
        <mxCell id="9iOKKmcb5jaVrc9PupZz-45" value="" style="endArrow=open;endFill=0;endSize=12;html=1;rounded=0;startArrow=diamondThin;startFill=0;exitX=0.25;exitY=1;exitDx=0;exitDy=0;entryX=0.983;entryY=0.592;entryDx=0;entryDy=0;entryPerimeter=0;" edge="1" parent="1" target="9iOKKmcb5jaVrc9PupZz-44" source="9iOKKmcb5jaVrc9PupZz-11">
          <mxGeometry width="160" relative="1" as="geometry">
            <mxPoint x="210" y="330" as="sourcePoint" />
            <mxPoint x="240" y="280" as="targetPoint" />
          </mxGeometry>
        </mxCell>
        <mxCell id="9iOKKmcb5jaVrc9PupZz-46" value="Add Fee Detail" style="rounded=0;whiteSpace=wrap;html=1;" vertex="1" parent="1">
          <mxGeometry x="265" y="270" width="90" height="40" as="geometry" />
        </mxCell>
        <mxCell id="9iOKKmcb5jaVrc9PupZz-47" value="Edit Fee" style="rounded=0;whiteSpace=wrap;html=1;" vertex="1" parent="1">
          <mxGeometry x="450" y="270" width="90" height="40" as="geometry" />
        </mxCell>
        <mxCell id="9iOKKmcb5jaVrc9PupZz-48" value="" style="endArrow=open;endFill=0;endSize=12;html=1;rounded=0;startArrow=diamondThin;startFill=0;exitX=0.5;exitY=1;exitDx=0;exitDy=0;entryX=1;entryY=0;entryDx=0;entryDy=0;" edge="1" parent="1" target="9iOKKmcb5jaVrc9PupZz-46" source="9iOKKmcb5jaVrc9PupZz-12">
          <mxGeometry width="160" relative="1" as="geometry">
            <mxPoint x="408" y="264" as="sourcePoint" />
            <mxPoint x="81" y="450" as="targetPoint" />
          </mxGeometry>
        </mxCell>
        <mxCell id="9iOKKmcb5jaVrc9PupZz-49" value="" style="endArrow=open;endFill=0;endSize=12;html=1;rounded=0;startArrow=diamondThin;startFill=0;entryX=0;entryY=0;entryDx=0;entryDy=0;exitX=0.5;exitY=1;exitDx=0;exitDy=0;" edge="1" parent="1" target="9iOKKmcb5jaVrc9PupZz-47" source="9iOKKmcb5jaVrc9PupZz-12">
          <mxGeometry width="160" relative="1" as="geometry">
            <mxPoint x="459" y="280" as="sourcePoint" />
            <mxPoint x="230" y="310" as="targetPoint" />
          </mxGeometry>
        </mxCell>
        <mxCell id="9iOKKmcb5jaVrc9PupZz-50" value="Fee Detail" style="rounded=0;whiteSpace=wrap;html=1;" vertex="1" parent="1">
          <mxGeometry x="355" y="320" width="90" height="40" as="geometry" />
        </mxCell>
        <mxCell id="9iOKKmcb5jaVrc9PupZz-51" value="" style="endArrow=open;endFill=0;endSize=12;html=1;rounded=0;startArrow=diamondThin;startFill=0;entryX=0.5;entryY=0;entryDx=0;entryDy=0;" edge="1" parent="1" target="9iOKKmcb5jaVrc9PupZz-50">
          <mxGeometry width="160" relative="1" as="geometry">
            <mxPoint x="400" y="230" as="sourcePoint" />
            <mxPoint x="500" y="330" as="targetPoint" />
          </mxGeometry>
        </mxCell>
        <mxCell id="9iOKKmcb5jaVrc9PupZz-52" value="Fee Statistic&lt;div&gt;&lt;br&gt;&lt;/div&gt;" style="rounded=0;whiteSpace=wrap;html=1;" vertex="1" parent="1">
          <mxGeometry x="355" y="410" width="90" height="40" as="geometry" />
        </mxCell>
        <mxCell id="9iOKKmcb5jaVrc9PupZz-53" value="" style="endArrow=open;dashed=1;endFill=0;endSize=12;html=1;rounded=0;startArrow=diamondThin;startFill=0;entryX=0.5;entryY=0;entryDx=0;entryDy=0;" edge="1" parent="1" source="9iOKKmcb5jaVrc9PupZz-50" target="9iOKKmcb5jaVrc9PupZz-52">
          <mxGeometry width="160" relative="1" as="geometry">
            <mxPoint x="410" y="240" as="sourcePoint" />
            <mxPoint x="410" y="350" as="targetPoint" />
          </mxGeometry>
        </mxCell>
        <mxCell id="9iOKKmcb5jaVrc9PupZz-54" value="Add Vehicle" style="rounded=0;whiteSpace=wrap;html=1;" vertex="1" parent="1">
          <mxGeometry x="630" y="320" width="90" height="40" as="geometry" />
        </mxCell>
        <mxCell id="9iOKKmcb5jaVrc9PupZz-55" value="Edit Vehicle" style="rounded=0;whiteSpace=wrap;html=1;" vertex="1" parent="1">
          <mxGeometry x="720" y="270" width="90" height="40" as="geometry" />
        </mxCell>
        <mxCell id="9iOKKmcb5jaVrc9PupZz-56" value="" style="endArrow=open;endFill=0;endSize=12;html=1;rounded=0;startArrow=diamondThin;startFill=0;entryX=0.25;entryY=0;entryDx=0;entryDy=0;exitX=0.5;exitY=1;exitDx=0;exitDy=0;" edge="1" parent="1" target="9iOKKmcb5jaVrc9PupZz-54" source="9iOKKmcb5jaVrc9PupZz-6">
          <mxGeometry width="160" relative="1" as="geometry">
            <mxPoint x="718" y="324" as="sourcePoint" />
            <mxPoint x="391" y="510" as="targetPoint" />
          </mxGeometry>
        </mxCell>
        <mxCell id="9iOKKmcb5jaVrc9PupZz-57" value="" style="endArrow=open;endFill=0;endSize=12;html=1;rounded=0;startArrow=diamondThin;startFill=0;entryX=0.5;entryY=0;entryDx=0;entryDy=0;exitX=1;exitY=1;exitDx=0;exitDy=0;" edge="1" parent="1" target="9iOKKmcb5jaVrc9PupZz-55" source="9iOKKmcb5jaVrc9PupZz-6">
          <mxGeometry width="160" relative="1" as="geometry">
            <mxPoint x="769" y="340" as="sourcePoint" />
            <mxPoint x="540" y="370" as="targetPoint" />
          </mxGeometry>
        </mxCell>
        <mxCell id="9iOKKmcb5jaVrc9PupZz-58" value="Vehicle Detail" style="rounded=0;whiteSpace=wrap;html=1;" vertex="1" parent="1">
          <mxGeometry x="760" y="190" width="90" height="40" as="geometry" />
        </mxCell>
        <mxCell id="9iOKKmcb5jaVrc9PupZz-59" value="" style="endArrow=open;endFill=0;endSize=12;html=1;rounded=0;startArrow=diamondThin;startFill=0;entryX=0;entryY=0.5;entryDx=0;entryDy=0;" edge="1" parent="1" target="9iOKKmcb5jaVrc9PupZz-58">
          <mxGeometry width="160" relative="1" as="geometry">
            <mxPoint x="650" y="210" as="sourcePoint" />
            <mxPoint x="810" y="390" as="targetPoint" />
          </mxGeometry>
        </mxCell>
      </root>
    </mxGraphModel>
  </diagram>
</mxfile>
